<svg width="512" height="512" viewBox="0 0 512 512" fill="none" xmlns="http://www.w3.org/2000/svg">
<rect width="512" height="512" fill="#0f0f19"/>
<path d="M151.967 333.101C141.838 333.101 132.82 331.72 124.914 328.957C117.008 326.227 110.324 322.21 104.862 316.907C99.4008 311.636 95.2412 305.191 92.3835 297.57C89.5258 289.949 88.0969 281.281 88.0969 271.565C88.0969 261.975 89.5258 253.275 92.3835 245.464C95.273 237.653 99.4802 230.953 105.005 225.365C110.53 219.744 117.278 215.426 125.247 212.409C133.249 209.393 142.362 207.885 152.586 207.885C162.049 207.885 170.495 209.266 177.925 212.028C185.387 214.791 191.706 218.728 196.881 223.84C202.089 228.921 206.042 234.97 208.741 241.987C211.472 248.973 212.821 256.704 212.789 265.182C212.821 271.025 212.313 276.391 211.265 281.281C210.217 286.171 208.566 290.441 206.312 294.093C204.089 297.713 201.168 300.586 197.548 302.714C193.928 304.809 189.546 306 184.402 306.286C180.719 306.572 177.734 306.302 175.448 305.476C173.162 304.651 171.416 303.428 170.209 301.809C169.034 300.158 168.272 298.237 167.923 296.046H167.351C166.589 297.951 165.097 299.681 162.874 301.237C160.652 302.761 157.937 303.952 154.73 304.809C151.554 305.635 148.173 305.937 144.585 305.714C140.838 305.492 137.282 304.619 133.916 303.095C130.582 301.571 127.613 299.364 125.009 296.474C122.437 293.585 120.405 290.013 118.913 285.758C117.452 281.503 116.706 276.581 116.674 270.993C116.706 265.468 117.484 260.658 119.008 256.561C120.564 252.465 122.612 249.02 125.152 246.226C127.724 243.432 130.582 241.241 133.725 239.653C136.869 238.066 140.028 237.049 143.204 236.605C146.792 236.065 150.189 236.065 153.396 236.605C156.603 237.145 159.302 238.018 161.493 239.225C163.716 240.431 165.097 241.733 165.637 243.13H166.304V237.796H181.211V284.281C181.243 286.472 181.735 288.171 182.688 289.378C183.64 290.584 184.926 291.188 186.546 291.188C188.737 291.188 190.562 290.219 192.023 288.282C193.515 286.345 194.627 283.376 195.357 279.376C196.119 275.375 196.5 270.279 196.5 264.087C196.5 258.117 195.706 252.878 194.119 248.369C192.563 243.829 190.372 239.971 187.546 236.795C184.752 233.588 181.497 230.985 177.782 228.984C174.067 226.984 170.034 225.523 165.684 224.602C161.366 223.682 156.921 223.221 152.348 223.221C144.442 223.221 137.536 224.428 131.63 226.841C125.724 229.222 120.802 232.572 116.865 236.891C112.927 241.209 109.974 246.274 108.006 252.084C106.069 257.863 105.085 264.166 105.053 270.993C105.085 278.518 106.132 285.186 108.196 290.997C110.292 296.776 113.372 301.634 117.436 305.572C121.501 309.509 126.518 312.494 132.487 314.526C138.457 316.558 145.315 317.574 153.063 317.574C156.714 317.574 160.286 317.304 163.779 316.764C167.272 316.256 170.431 315.621 173.257 314.859C176.083 314.129 178.354 313.414 180.068 312.716L184.784 326.528C182.783 327.671 180.068 328.735 176.639 329.719C173.241 330.735 169.399 331.545 165.113 332.148C160.858 332.784 156.476 333.101 151.967 333.101ZM149.776 290.045C153.65 290.045 156.73 289.298 159.016 287.806C161.334 286.314 162.985 284.107 163.97 281.186C164.986 278.233 165.462 274.597 165.399 270.279C165.367 266.468 164.875 263.245 163.922 260.61C163.001 257.943 161.398 255.926 159.112 254.561C156.857 253.164 153.714 252.465 149.681 252.465C146.157 252.465 143.156 253.212 140.679 254.704C138.234 256.196 136.361 258.292 135.059 260.991C133.789 263.658 133.138 266.802 133.106 270.421C133.138 273.787 133.678 276.978 134.726 279.995C135.773 282.98 137.504 285.409 139.917 287.282C142.33 289.124 145.617 290.045 149.776 290.045ZM263.24 305L279.243 207.456H294.485L278.481 305H263.24ZM219.565 280.805L222.089 265.563H298.295L295.771 280.805H219.565ZM228.947 305L244.951 207.456H260.192L244.189 305H228.947ZM225.137 246.893L227.709 231.652H303.915L301.343 246.893H225.137ZM366.583 286.711V281.567C366.583 277.661 367.409 274.073 369.06 270.802C370.743 267.5 373.172 264.865 376.347 262.896C379.554 260.896 383.459 259.895 388.064 259.895C392.731 259.895 396.653 260.88 399.828 262.848C403.035 264.817 405.448 267.453 407.067 270.755C408.719 274.025 409.544 277.629 409.544 281.567V286.711C409.544 290.616 408.719 294.22 407.067 297.522C405.416 300.793 402.987 303.412 399.78 305.381C396.573 307.381 392.668 308.382 388.064 308.382C383.396 308.382 379.474 307.381 376.299 305.381C373.124 303.412 370.711 300.793 369.06 297.522C367.409 294.22 366.583 290.616 366.583 286.711ZM380.443 281.567V286.711C380.443 288.965 380.983 291.092 382.062 293.093C383.174 295.093 385.174 296.093 388.064 296.093C390.953 296.093 392.922 295.109 393.97 293.14C395.049 291.172 395.589 289.028 395.589 286.711V281.567C395.589 279.249 395.081 277.089 394.065 275.089C393.049 273.089 391.048 272.088 388.064 272.088C385.206 272.088 383.221 273.089 382.11 275.089C380.999 277.089 380.443 279.249 380.443 281.567ZM316.525 230.889V225.746C316.525 221.808 317.366 218.204 319.049 214.934C320.732 211.632 323.161 208.996 326.337 207.027C329.544 205.059 333.417 204.074 337.958 204.074C342.657 204.074 346.595 205.059 349.77 207.027C352.945 208.996 355.358 211.632 357.01 214.934C358.661 218.204 359.486 221.808 359.486 225.746V230.889C359.486 234.827 358.645 238.431 356.962 241.701C355.311 244.972 352.882 247.591 349.675 249.56C346.499 251.497 342.594 252.465 337.958 252.465C333.322 252.465 329.401 251.481 326.194 249.512C323.018 247.512 320.605 244.892 318.954 241.654C317.335 238.383 316.525 234.795 316.525 230.889ZM330.48 225.746V230.889C330.48 233.207 331.02 235.351 332.1 237.319C333.211 239.288 335.164 240.272 337.958 240.272C340.879 240.272 342.864 239.288 343.912 237.319C344.991 235.351 345.531 233.207 345.531 230.889V225.746C345.531 223.428 345.023 221.268 344.007 219.268C342.991 217.268 340.974 216.267 337.958 216.267C335.132 216.267 333.179 217.283 332.1 219.316C331.02 221.348 330.48 223.491 330.48 225.746ZM322.812 305L389.873 207.456H402.352L335.291 305H322.812Z" fill="#6D9DFF"/>
</svg>
